<svg width="367" height="364" viewBox="0 0 367 364" fill="none" xmlns="http://www.w3.org/2000/svg">
<g opacity="0.16">
<mask id="mask0_340_1936" style="mask-type:alpha" maskUnits="userSpaceOnUse" x="-63" y="-30" width="475" height="475">
<line x1="12.0381" y1="-30" x2="12.0381" y2="445" stroke="black" stroke-width="1.45706"/>
<line x1="35.3516" y1="-30" x2="35.3516" y2="445" stroke="black" stroke-width="1.45706"/>
<line x1="58.6641" y1="-30" x2="58.6641" y2="445" stroke="black" stroke-width="1.45706"/>
<line x1="81.9766" y1="-30" x2="81.9766" y2="445" stroke="black" stroke-width="1.45706"/>
<line x1="105.29" y1="-30" x2="105.29" y2="445" stroke="black" stroke-width="1.45706"/>
<line x1="128.603" y1="-30" x2="128.603" y2="445" stroke="black" stroke-width="1.45706"/>
<line x1="151.916" y1="-30" x2="151.916" y2="445" stroke="black" stroke-width="1.45706"/>
<line x1="175.229" y1="-30" x2="175.229" y2="445" stroke="black" stroke-width="1.45706"/>
<line x1="198.542" y1="-30" x2="198.542" y2="445" stroke="black" stroke-width="1.45706"/>
<line x1="221.855" y1="-30" x2="221.854" y2="445" stroke="black" stroke-width="1.45706"/>
<line x1="245.167" y1="-30" x2="245.167" y2="445" stroke="black" stroke-width="1.45706"/>
<line x1="268.48" y1="-30" x2="268.48" y2="445" stroke="black" stroke-width="1.45706"/>
<line x1="291.793" y1="-30" x2="291.793" y2="445" stroke="black" stroke-width="1.45706"/>
<line x1="315.106" y1="-30" x2="315.106" y2="445" stroke="black" stroke-width="1.45706"/>
<line x1="338.419" y1="-30" x2="338.419" y2="445" stroke="black" stroke-width="1.45706"/>
<line x1="361.731" y1="-30" x2="361.731" y2="445" stroke="black" stroke-width="1.45706"/>
<line x1="-63" y1="346.649" x2="412" y2="346.649" stroke="black" stroke-width="1.45706"/>
<line x1="-63" y1="323.336" x2="412" y2="323.336" stroke="black" stroke-width="1.45706"/>
<line x1="-63" y1="300.023" x2="412" y2="300.023" stroke="black" stroke-width="1.45706"/>
<line x1="-63" y1="276.71" x2="412" y2="276.71" stroke="black" stroke-width="1.45706"/>
<line x1="-63" y1="253.397" x2="412" y2="253.397" stroke="black" stroke-width="1.45706"/>
<line x1="-63" y1="230.084" x2="412" y2="230.084" stroke="black" stroke-width="1.45706"/>
<line x1="-63" y1="206.771" x2="412" y2="206.771" stroke="black" stroke-width="1.45706"/>
<line x1="-63" y1="183.459" x2="412" y2="183.459" stroke="black" stroke-width="1.45706"/>
<line x1="-63" y1="160.146" x2="412" y2="160.146" stroke="black" stroke-width="1.45706"/>
<line x1="-63" y1="136.833" x2="412" y2="136.833" stroke="black" stroke-width="1.45706"/>
<line x1="-63" y1="113.52" x2="412" y2="113.52" stroke="black" stroke-width="1.45706"/>
<line x1="-63" y1="90.207" x2="412" y2="90.207" stroke="black" stroke-width="1.45706"/>
<line x1="-63" y1="66.894" x2="412" y2="66.894" stroke="black" stroke-width="1.45706"/>
<line x1="-63" y1="43.5812" x2="412" y2="43.5812" stroke="black" stroke-width="1.45706"/>
<line x1="-63" y1="20.2683" x2="412" y2="20.2683" stroke="black" stroke-width="1.45706"/>
</mask>
<g mask="url(#mask0_340_1936)">
<path fill-rule="evenodd" clip-rule="evenodd" d="M183.454 303.838C251.519 303.838 306.697 249.174 306.697 181.743C306.697 114.313 251.519 59.6491 183.454 59.6491C115.388 59.6491 60.2105 114.313 60.2105 181.743C60.2105 249.174 115.388 303.838 183.454 303.838ZM183.454 363.487C284.773 363.487 366.908 282.118 366.908 181.743C366.908 81.3693 284.773 0 183.454 0C82.1351 0 0 81.3693 0 181.743C0 282.118 82.1351 363.487 183.454 363.487Z" fill="#02181D"/>
</g>
</g>
</svg>
